<svg xmlns="http://www.w3.org/2000/svg" version="1.1" xmlns:xlink="http://www.w3.org/1999/xlink" width="1000" height="1000"><g clip-path="url(#SvgjsClipPath1033)"><rect width="1000" height="1000" fill="#ffffff"></rect><g transform="matrix(7.579859231185707,0,0,7.579859231185707,229.66432051976173,150)"><svg xmlns="http://www.w3.org/2000/svg" version="1.1" xmlns:xlink="http://www.w3.org/1999/xlink" width="71.33" height="92.35"><svg id="Layer_2" data-name="Layer 2" xmlns="http://www.w3.org/2000/svg" viewBox="0 0 71.33 92.35">
  <defs>
    <style>
      .cls-1 {
        fill: #112b32;
      }
    </style>
  <clipPath id="SvgjsClipPath1033"><rect width="1000" height="1000" x="0" y="0" rx="350" ry="350"></rect></clipPath></defs>
  <g id="Layer_1-2" data-name="Layer 1">
    <g>
      <path class="cls-1" d="M47.13,25.54c-5.59-4.06-11.2-6.58-11.26-6.61l-.2-.09-.2.09c-.06.02-5.69,2.56-11.26,6.61-7.41,5.39-11.16,10.76-11.16,15.97v50.84h45.25v-50.84c0-5.21-3.76-10.58-11.16-15.97ZM27.53,30.13c2.99-2.18,6.04-3.9,8.14-4.98,2.1,1.09,5.14,2.8,8.14,4.98,5.69,4.14,8.82,8.18,8.82,11.38v45.17H18.71v-45.17c0-3.2,3.13-7.24,8.82-11.38Z"></path>
      <path class="cls-1" d="M35.82.05l-.16-.05-.15.05C34.06.51,0,11.6,0,31.02v61.33h9.07v-5.67h-3.4V31.02c0-7.56,8.11-13.96,14.91-18,5.85-3.47,11.73-5.81,14.82-6.93l.26.11.26-.11c3.1,1.12,8.98,3.46,14.82,6.93,6.8,4.04,14.91,10.45,14.91,18v55.66h-3.4v5.67h9.07V31.02C71.33,11.58,37.27.51,35.82.05Z"></path>
    </g>
  </g>
</svg></svg></g></g></svg>