<?xml version="1.0" encoding="UTF-8"?><svg id="a" xmlns="http://www.w3.org/2000/svg" viewBox="0 0 863.83 765.31"><path d="M376.7,57.04s-54.83,15.51-31.57,75.87h-16.66l14.75,33.46h4.82l-1.81,124.34s40.34,30.11,62.62,65.93l-4.52-190.27h6.32l14.75-33.72h-16.86s26.31-56.08-31.85-75.61Z" fill="#08a86e" stroke-width="0"/><path d="M387.55,54.17c0,.72-.06,1.42-.21,2.08-2.74-1.29-5.66-2.44-8.73-3.46l-1.75-.6-1.81.51c-.36.12-3.7,1.08-8.4,3.34-.12-.6-.18-1.23-.18-1.87,0-5.84,4.73-10.54,10.54-10.54s10.54,4.7,10.54,10.54Z" fill="#00974b" stroke-width="0"/><path d="M382.62,24.3c0,5.4-.42,10.4-1.15,14.44-1.45-.49-3.05-.76-4.66-.76s-3.21.27-4.66.76c-.72-4.04-1.13-9.04-1.13-14.44,0-13.41,2.58-24.3,5.79-24.3s5.81,10.89,5.81,24.3Z" fill="#72bd91" stroke-width="0"/><path d="M376.65,57.02s-41.47,42.98,3.77,75.93h-35.08s-26.21-55.73,31.3-75.93Z" fill="#00974b" stroke-width="0"/><polygon points="337.89 153.34 339.59 158.03 385.38 158.03 392.55 153.6 337.89 153.34" fill="#00974b" stroke-width="0"/><polygon points="348.12 166.35 380.4 166.5 363.19 173.8 365.86 307.25 345.17 290.12 348.12 166.35" fill="#00974b" stroke-width="0"/><path d="M447.26,474.94c-24.66-24.18-55.37-38.51-88.67-38.51-81.24,0-147.09,85.33-147.09,190.56,0,16.29,1.57,32.07,4.55,47.15l-.18.15C92.77,652.01,0,714.31,0,714.31l.15-.33h.03l32.88-64.56,16.26-1.14.09.36,98.67-10.39-.63-5.18-98.37,3.79h-.06c-10.66-33.06-16.77-63.35-19.12-91.17-.15-1.87-.3-3.7-.42-5.54-1.11-15.84-1.02-30.83.15-45.04.69-8.73,1.81-17.16,3.25-25.32,29.66-165.54,205.86-211.91,205.86-211.91.39.12.78.24,1.14.39,184.12,61.57,205.08,193.45,207.37,216.67Z" fill="#08a86e" stroke-width="0"/><path d="M252.94,256.02c0,.97-.08,1.9-.28,2.79-3.68-1.74-7.61-3.28-11.73-4.65l-2.35-.81-2.43.69c-.49.16-4.98,1.46-11.29,4.49-.16-.81-.24-1.66-.24-2.51,0-7.85,6.35-14.16,14.16-14.16s14.16,6.31,14.16,14.16Z" fill="#00974b" stroke-width="0"/><path d="M246.36,217.3c0,7.04-.54,13.57-1.51,18.85-1.9-.64-3.97-1-6.08-1s-4.19.35-6.08,1c-.93-5.27-1.48-11.8-1.48-18.85,0-17.5,3.37-31.71,7.56-31.71s7.59,14.22,7.59,31.71Z" fill="#a0d0b2" stroke-width="0"/><path d="M239.88,258.28c-39.74,64.62-63.41,145.58-63.41,233.44,0,65.85,13.28,127.82,36.67,181.95C94.66,653.34,4.91,710.88.18,713.99h-.03c-.09.09-.15.12-.15.12l33.06-64.86,16.23-1.17,3.4-.24c0,.06.03.15.06.21l-3.43.24.09.36,98.67-10.39-.63-5.18-98.37,3.79c-11.38-35.23-17.58-67.39-19.6-96.71-1.11-15.84-1.02-30.83.15-45.04,15.02-186.38,209.11-237.41,209.11-237.41.42.12.81.27,1.23.42-.03.06-.06.09-.09.15Z" fill="#00974b" stroke-width="0"/><path d="M863.83,655.3c-11.5-.03-23-.06-34.5-.09-.95,0-1.9,0-3.04,0v-108.62c.73-.05,1.57-.16,2.4-.16,10.84-.01,21.69,0,32.53-.02.87,0,1.74-.12,2.61-.19v109.07Z" fill="#1b1b1b" stroke-width="0"/><path d="M863.83,515.88c-.28,1.03-.57,2.06-.84,3.09-2.6,9.81-12.35,15.66-22.28,13.36-9.81-2.27-16.1-12.08-14.04-21.9,2.03-9.67,11.61-16.14,21.44-14.47,8.06,1.37,13.94,7.21,15.29,15.18.07.42.28.82.43,1.22v3.52Z" fill="#1b1b1b" stroke-width="0"/><path d="M271.16,518.61h59.54c9.65,29.96,19.29,59.92,28.94,89.89.16,0,.32,0,.48,0,1.81-5.34,3.62-10.68,5.43-16.02,8.12-24.04,16.25-48.07,24.33-72.12.43-1.28.95-1.84,2.43-1.83,18.1.11,36.2.14,54.3.21.57,0,1.14.1,1.81.17v136.29h-37.92v-102.92c-.16-.03-.32-.07-.48-.1-.5,1.5-1.02,3-1.51,4.5-10.41,32.21-20.82,64.42-31.24,96.63-.3.92-.37,1.96-1.88,1.95-11.36-.06-22.71-.03-34.36-.03-10.33-34.25-20.65-68.51-30.98-102.76-.13.01-.26.03-.39.04v102.55h-38.5v-136.43Z" fill="#1b1b1b" stroke-width="0"/><path d="M741.61,655.22h-37.54c-.05-.9-.13-1.68-.13-2.46,0-34.66,0-69.32-.04-103.98,0-1.76.39-2.42,2.29-2.39,7.99.1,15.98.09,23.96,0,1.63-.02,2.26.54,2.71,2.07,1.59,5.4,3.34,10.75,5.04,16.12.13.4.29.79.6,1.63.76-1.27,1.33-2.22,1.9-3.17,5.54-9.19,13.26-15.8,23.78-18.13,11.24-2.49,22.55-1.45,33.2,2.91,11.65,4.77,17.75,14.5,20.54,26.29,1.26,5.29,1.84,10.86,1.89,16.3.21,20.81.09,41.62.08,62.43,0,.71-.07,1.43-.11,2.25h-34.63c-.04-.85-.11-1.69-.11-2.53,0-15.9.06-31.8-.04-47.7-.04-6.23-.57-12.43-2.85-18.34-2.57-6.64-6.72-11.55-14.25-12.4-7.59-.85-14.05,1.44-18.81,7.63-4.2,5.46-5.92,11.89-6.65,18.57-.54,4.94-.76,9.93-.8,14.9-.11,12.38-.04,24.77-.04,37.15v2.84Z" fill="#1b1b1b" stroke-width="0"/><path d="M656.92,521.74v38.49l-.52.19c-.48-.52-.96-1.04-1.44-1.56-5.94-6.47-13.15-11.11-21.54-13.44-18.56-5.14-40.55,1.3-52.32,22.05-8.61,15.17-10.62,31.48-7.45,48.44,4.7,25.12,22.21,39.42,42.51,41.36,14.09,1.35,26.53-2.24,37.16-11.7,1.52-1.35,2.92-2.84,4.54-4.44,1.59,4.22,3.17,8.28,4.63,12.38.47,1.31,1.14,1.75,2.55,1.74,9.23-.07,18.47-.03,27.7-.04.56,0,1.11-.11,1.64-.16v-133.31h-37.46ZM655.43,613.18c-3.42,12.66-13.44,16.93-24.91,15.56-8.64-1.03-14.15-6.04-16.72-14.14-2.82-8.87-2.89-17.95.03-26.78,3.69-11.17,11.15-15.38,21.32-15.07,10.84.33,18.11,6.7,20.6,17.61.82,3.61.98,7.37,1.48,11.39-.56,3.66-.78,7.65-1.8,11.42Z" fill="#1b1b1b" stroke-width="0"/><path d="M564.08,584.67c-.02-7.84-1.66-15.23-6.71-21.58-6.15-7.74-14.17-12.62-23.45-15.51-14.51-4.51-29.22-4.98-44.01-1.51-6.54,1.53-13.02,3.35-19.5,5.14-.74.21-1.86,1.07-1.87,1.64-.12,8.26-.08,16.52-.08,24.7,5.72-1.91,11.25-4.02,16.93-5.59,8.97-2.47,18.01-4.52,27.48-3.38,10.18,1.23,16.24,7.79,15.69,17.23-3.73,0-7.3.06-10.87-.01-11.59-.24-23.13-.01-34.41,3.19-15.66,4.44-26.72,14.19-28.33,31.98-1.36,15.02,4.8,26.16,18.63,32.21,9.14,4,18.73,4.97,28.59,3.96,10.44-1.07,18.61-6.13,25.09-14.18.99-1.23,1.95-2.48,3.09-3.93,1.29,5.57,2.51,10.83,3.73,16.07h29.89c.05-.76.14-1.41.14-2.05,0-22.79.05-45.58-.02-68.37ZM514.31,630.22c-4.33,1.77-8.86,2.53-13.53,2.28-5.32-.28-9.94-4.94-10.4-10.46-.54-6.45,1.78-10.26,7.86-12.62,5.63-2.19,11.56-2.48,17.5-2.57,4.15-.06,8.31-.01,12.42-.01,1.67,9.94-3.96,19.34-13.85,23.38Z" fill="#1b1b1b" stroke-width="0"/><path d="M372.53,735.9c-.41,2.17-1.15,4.17-2.24,5.99-1.09,1.82-2.6,3.32-4.54,4.5-1.94,1.18-4.44,1.77-7.51,1.77-3.84,0-7.04-1.1-9.59-3.29-2.56-2.2-4.26-5.02-5.12-8.47l9.66-3.61c.3,1.32.84,2.39,1.63,3.19s1.76,1.2,2.91,1.2c1.79,0,2.97-.68,3.55-2.05.57-1.37.86-3.16.86-5.39v-33.08h11v33.01c0,1.98-.2,4.06-.61,6.23Z" fill="#1b1b1b" stroke-width="0"/><path d="M380.81,716.84c1.88-1.99,4.06-3.47,6.56-4.47,2.49-.99,5.04-1.49,7.64-1.49s4.96.37,6.81,1.1,3.36,1.86,4.51,3.4c1.15,1.54,1.99,3.47,2.53,5.81.53,2.34.8,5.11.8,8.33v17.78h-9.59v-3.75h-.19c-.81,1.46-2.04,2.6-3.68,3.4-1.64.8-3.42,1.2-5.34,1.2-1.28,0-2.6-.19-3.97-.57-1.36-.38-2.61-.99-3.74-1.84-1.13-.85-2.06-1.98-2.78-3.4-.72-1.41-1.09-3.16-1.09-5.24,0-2.55.63-4.6,1.89-6.16,1.26-1.56,2.88-2.76,4.86-3.61,1.98-.85,4.19-1.42,6.62-1.7,2.43-.28,4.8-.43,7.1-.43v-.57c0-1.75-.55-3.03-1.66-3.86-1.11-.82-2.47-1.24-4.09-1.24-1.49,0-2.93.35-4.32,1.06-1.39.71-2.57,1.56-3.55,2.55l-5.31-6.3ZM400.07,731.93h-1.34c-1.15,0-2.31.06-3.49.18-1.17.12-2.22.34-3.14.67-.92.33-1.67.81-2.27,1.45-.6.64-.9,1.48-.9,2.51,0,.66.14,1.23.42,1.7.28.47.63.85,1.06,1.13.43.28.92.48,1.47.6.56.12,1.09.18,1.6.18,2.13,0,3.76-.65,4.89-1.95,1.13-1.3,1.7-3.06,1.7-5.28v-1.2Z" fill="#1b1b1b" stroke-width="0"/><path d="M458.14,748.15v-19.27c0-.99-.06-1.95-.19-2.87-.13-.92-.37-1.71-.71-2.37s-.8-1.19-1.37-1.59-1.33-.6-2.27-.6-1.67.21-2.34.64c-.66.43-1.21.99-1.66,1.7s-.78,1.52-.99,2.44c-.21.92-.32,1.88-.32,2.87v19.05h-10.49v-20.12c0-2.03-.36-3.64-1.09-4.82s-1.88-1.77-3.45-1.77c-1.66,0-2.95.73-3.87,2.2s-1.37,3.26-1.37,5.38v19.13h-10.55v-35.28h10.17v4.89h.13c.38-.75.86-1.49,1.44-2.2.57-.71,1.27-1.33,2.08-1.88.81-.54,1.72-.98,2.72-1.31,1-.33,2.1-.5,3.29-.5,2.3,0,4.25.52,5.85,1.56,1.6,1.04,2.85,2.52,3.74,4.46,1.06-1.84,2.43-3.3,4.09-4.39,1.66-1.09,3.69-1.63,6.08-1.63,2.17,0,4,.44,5.47,1.31,1.47.88,2.65,2.01,3.55,3.4.89,1.39,1.54,2.95,1.95,4.68.41,1.72.61,3.41.61,5.06v21.82h-10.49Z" fill="#1b1b1b" stroke-width="0"/><path d="M487.94,701.61c0,.9-.16,1.73-.48,2.51-.32.78-.75,1.45-1.28,2.02-.53.57-1.17,1.02-1.92,1.35-.75.33-1.53.5-2.34.5-1.71,0-3.13-.63-4.28-1.88-1.15-1.25-1.73-2.75-1.73-4.5,0-.85.15-1.67.45-2.45.3-.78.72-1.45,1.28-2.02.55-.56,1.19-1.03,1.92-1.38.72-.35,1.51-.53,2.37-.53s1.59.17,2.34.5c.74.33,1.38.78,1.92,1.35.53.57.96,1.24,1.28,2.02.32.78.48,1.62.48,2.51ZM476.68,748.15v-35.28h10.49v35.28h-10.49Z" fill="#1b1b1b" stroke-width="0"/><path d="M495.04,716.84c1.88-1.99,4.06-3.47,6.56-4.47,2.49-.99,5.04-1.49,7.64-1.49s4.96.37,6.81,1.1,3.36,1.86,4.51,3.4c1.15,1.54,1.99,3.47,2.53,5.81.53,2.34.8,5.11.8,8.33v17.78h-9.59v-3.75h-.19c-.81,1.46-2.04,2.6-3.68,3.4-1.64.8-3.42,1.2-5.34,1.2-1.28,0-2.6-.19-3.97-.57-1.36-.38-2.61-.99-3.74-1.84-1.13-.85-2.06-1.98-2.78-3.4-.72-1.41-1.09-3.16-1.09-5.24,0-2.55.63-4.6,1.89-6.16,1.26-1.56,2.88-2.76,4.86-3.61,1.98-.85,4.19-1.42,6.62-1.7,2.43-.28,4.8-.43,7.1-.43v-.57c0-1.75-.55-3.03-1.66-3.86-1.11-.82-2.47-1.24-4.09-1.24-1.49,0-2.93.35-4.32,1.06-1.39.71-2.57,1.56-3.55,2.55l-5.31-6.3ZM514.29,731.93h-1.34c-1.15,0-2.31.06-3.49.18-1.17.12-2.22.34-3.14.67-.92.33-1.67.81-2.27,1.45-.6.64-.9,1.48-.9,2.51,0,.66.14,1.23.42,1.7.28.47.63.85,1.06,1.13.43.28.92.48,1.47.6.56.12,1.09.18,1.6.18,2.13,0,3.76-.65,4.89-1.95,1.13-1.3,1.7-3.06,1.7-5.28v-1.2Z" fill="#1b1b1b" stroke-width="0"/><path d="M589.31,748.15l.26-35.49h-.19l-11.77,35.49h-7.67l-11.45-35.49h-.19l.26,35.49h-10.3v-50.15h15.56l10.31,32.16h.26l9.86-32.16h15.82v50.15h-10.75Z" fill="#1b1b1b" stroke-width="0"/><path d="M608.3,716.84c1.88-1.99,4.06-3.47,6.56-4.47,2.49-.99,5.04-1.49,7.64-1.49s4.96.37,6.81,1.1c1.85.73,3.36,1.86,4.51,3.4,1.15,1.54,1.99,3.47,2.53,5.81.53,2.34.8,5.11.8,8.33v17.78h-9.59v-3.75h-.19c-.81,1.46-2.04,2.6-3.68,3.4-1.64.8-3.42,1.2-5.34,1.2-1.28,0-2.6-.19-3.97-.57-1.36-.38-2.61-.99-3.74-1.84-1.13-.85-2.06-1.98-2.78-3.4-.72-1.41-1.09-3.16-1.09-5.24,0-2.55.63-4.6,1.89-6.16,1.26-1.56,2.88-2.76,4.86-3.61,1.98-.85,4.19-1.42,6.62-1.7,2.43-.28,4.8-.43,7.1-.43v-.57c0-1.75-.55-3.03-1.66-3.86-1.11-.82-2.47-1.24-4.09-1.24-1.49,0-2.93.35-4.32,1.06-1.39.71-2.57,1.56-3.55,2.55l-5.31-6.3ZM627.55,731.93h-1.34c-1.15,0-2.31.06-3.49.18-1.17.12-2.22.34-3.14.67-.92.33-1.67.81-2.27,1.45-.6.64-.9,1.48-.9,2.51,0,.66.14,1.23.42,1.7.28.47.63.85,1.06,1.13.43.28.92.48,1.47.6.56.12,1.09.18,1.6.18,2.13,0,3.76-.65,4.89-1.95,1.13-1.3,1.7-3.06,1.7-5.28v-1.2Z" fill="#1b1b1b" stroke-width="0"/><path d="M663.69,722.15c-.85-.9-1.85-1.65-3-2.27-1.15-.61-2.37-.92-3.65-.92-.98,0-1.89.21-2.72.64s-1.25,1.16-1.25,2.2.46,1.7,1.37,2.13c.91.42,2.4.9,4.44,1.41,1.19.28,2.4.68,3.61,1.2,1.22.52,2.31,1.2,3.29,2.05.98.85,1.77,1.89,2.37,3.12.6,1.23.9,2.69.9,4.39,0,2.22-.41,4.1-1.21,5.63-.81,1.54-1.87,2.77-3.17,3.72-1.3.95-2.76,1.63-4.38,2.05-1.62.43-3.24.64-4.86.64-2.6,0-5.15-.46-7.64-1.38-2.5-.92-4.57-2.28-6.24-4.07l5.88-6.87c.94,1.13,2.09,2.08,3.45,2.83,1.36.76,2.81,1.13,4.35,1.13.85,0,1.7-.22,2.53-.67.83-.45,1.25-1.24,1.25-2.37s-.51-1.89-1.53-2.41c-1.02-.52-2.62-1.06-4.8-1.63-1.11-.28-2.22-.66-3.33-1.13-1.11-.47-2.1-1.11-2.97-1.91-.87-.8-1.59-1.79-2.15-2.97-.55-1.18-.83-2.59-.83-4.25,0-2.12.41-3.93,1.21-5.42.81-1.49,1.85-2.7,3.14-3.65,1.28-.94,2.69-1.64,4.25-2.09,1.56-.45,3.1-.67,4.64-.67,2.39,0,4.72.42,7,1.24,2.28.83,4.21,2.06,5.79,3.72l-5.76,6.59Z" fill="#1b1b1b" stroke-width="0"/><path d="M686.1,749.23c0,2.17-.18,4.24-.54,6.2-.36,1.96-1.01,3.67-1.95,5.14-.94,1.46-2.24,2.62-3.9,3.47-1.66.85-3.77,1.27-6.33,1.27-.72,0-1.51-.05-2.36-.14-.85-.09-1.58-.24-2.18-.43l.71-9.7c.38.14.78.24,1.18.28.41.04.76.07,1.06.07,1.54,0,2.56-.58,3.07-1.74.51-1.16.77-2.63.77-4.43v-36.2h10.49v36.2ZM686.87,701.77c0,.9-.16,1.73-.48,2.51-.32.78-.75,1.45-1.28,2.02-.53.57-1.17,1.02-1.92,1.35-.75.33-1.52.5-2.34.5-1.71,0-3.13-.63-4.28-1.88-1.15-1.25-1.73-2.75-1.73-4.5,0-.85.15-1.67.45-2.45.3-.78.72-1.45,1.28-2.02.56-.56,1.19-1.03,1.92-1.38.72-.35,1.51-.53,2.36-.53s1.59.17,2.34.5c.75.33,1.39.78,1.92,1.35.53.57.96,1.24,1.28,2.02.32.78.48,1.62.48,2.51Z" fill="#1b1b1b" stroke-width="0"/><path d="M705.64,701.61c0,.9-.16,1.73-.48,2.51-.32.78-.75,1.45-1.28,2.02-.53.57-1.17,1.02-1.92,1.35-.75.33-1.53.5-2.34.5-1.71,0-3.13-.63-4.28-1.88-1.15-1.25-1.73-2.75-1.73-4.5,0-.85.15-1.67.45-2.45.3-.78.72-1.45,1.28-2.02.55-.56,1.19-1.03,1.92-1.38.72-.35,1.51-.53,2.37-.53s1.59.17,2.34.5c.74.33,1.38.78,1.92,1.35s.96,1.24,1.28,2.02c.32.78.48,1.62.48,2.51ZM694.39,748.15v-35.28h10.49v35.28h-10.49Z" fill="#1b1b1b" stroke-width="0"/><path d="M736.62,747.07v-5.03h-.14c-1.08,1.96-2.62,3.47-4.62,4.53-2,1.06-4.13,1.59-6.38,1.59-2.52,0-4.77-.57-6.75-1.71-1.98-1.13-3.65-2.64-5.02-4.53-1.37-1.88-2.42-4.06-3.14-6.54-.72-2.48-1.08-5.06-1.08-7.74s.37-5.26,1.11-7.71c.74-2.45,1.8-4.61,3.17-6.47,1.37-1.86,3.04-3.33,4.99-4.42,1.96-1.08,4.15-1.63,6.58-1.63s4.56.54,6.27,1.63c1.71,1.09,3.04,2.27,3.98,3.56h.14v-12.04h11.06v46.5h-10.18ZM736.22,727.71c0-1.24-.19-2.45-.57-3.64-.38-1.18-.92-2.24-1.62-3.17-.7-.93-1.54-1.68-2.53-2.25-.99-.57-2.11-.85-3.37-.85s-2.45.28-3.44.85c-.99.57-1.82,1.3-2.5,2.21s-1.18,1.95-1.52,3.13c-.34,1.19-.5,2.4-.5,3.64s.17,2.47.5,3.68c.34,1.21.84,2.28,1.52,3.21.68.93,1.51,1.68,2.5,2.25.99.57,2.13.85,3.44.85s2.38-.28,3.37-.85c.99-.57,1.83-1.32,2.53-2.25s1.24-1.99,1.62-3.17.57-2.4.57-3.64Z" fill="#1b1b1b" stroke-width="0"/></svg>